<svg xmlns="http://www.w3.org/2000/svg" xmlns:xlink="http://www.w3.org/1999/xlink" width="123" zoomAndPan="magnify" viewBox="0 0 92.25 92.249996" height="123" preserveAspectRatio="xMidYMid meet" version="1.0"><defs><clipPath id="8250142d61"><path d="M 0 0 L 91.28125 0 L 91.28125 91.28125 L 0 91.28125 Z M 0 0 " clip-rule="nonzero"/></clipPath><clipPath id="077a42a98b"><path d="M 45.640625 0 C 20.433594 0 0 20.433594 0 45.640625 C 0 70.847656 20.433594 91.28125 45.640625 91.28125 C 70.847656 91.28125 91.28125 70.847656 91.28125 45.640625 C 91.28125 20.433594 70.847656 0 45.640625 0 Z M 45.640625 0 " clip-rule="nonzero"/></clipPath><clipPath id="5fedb6d80f"><path d="M 0 0 L 91.28125 0 L 91.28125 91.28125 L 0 91.28125 Z M 0 0 " clip-rule="nonzero"/></clipPath><clipPath id="14b13b8e28"><path d="M 45.640625 0 C 20.433594 0 0 20.433594 0 45.640625 C 0 70.847656 20.433594 91.28125 45.640625 91.28125 C 70.847656 91.28125 91.28125 70.847656 91.28125 45.640625 C 91.28125 20.433594 70.847656 0 45.640625 0 Z M 45.640625 0 " clip-rule="nonzero"/></clipPath><clipPath id="5384107c8d"><rect x="0" width="92" y="0" height="92"/></clipPath><clipPath id="b4f5421981"><path d="M 0 0 L 91.273438 0 L 91.273438 91.273438 L 0 91.273438 Z M 0 0 " clip-rule="nonzero"/></clipPath><clipPath id="c6cef5f4df"><path d="M 45.636719 0 C 20.433594 0 0 20.433594 0 45.636719 C 0 70.839844 20.433594 91.273438 45.636719 91.273438 C 70.839844 91.273438 91.273438 70.839844 91.273438 45.636719 C 91.273438 20.433594 70.839844 0 45.636719 0 Z M 45.636719 0 " clip-rule="nonzero"/></clipPath><clipPath id="dcd387c301"><path d="M 22.339844 26.378906 L 76.648438 26.378906 L 76.648438 65 L 22.339844 65 Z M 22.339844 26.378906 " clip-rule="nonzero"/></clipPath></defs><g clip-path="url(#8250142d61)"><g clip-path="url(#077a42a98b)"><g transform="matrix(1, 0, 0, 1, 0, -0.000000000000000722)"><g clip-path="url(#5384107c8d)"><g clip-path="url(#5fedb6d80f)"><g clip-path="url(#14b13b8e28)"><path fill="#f2c583" d="M 0 0 L 91.28125 0 L 91.28125 91.28125 L 0 91.28125 Z M 0 0 " fill-opacity="1" fill-rule="nonzero"/></g></g></g></g></g></g><g clip-path="url(#b4f5421981)"><g clip-path="url(#c6cef5f4df)"><path stroke-linecap="butt" transform="matrix(0.743952, 0, 0, 0.743952, 0.000002, -0.000000991935)" fill="none" stroke-linejoin="miter" d="M 61.343668 0.00000133333 C 27.466294 0.00000133333 -0.00000268835 27.466298 -0.00000268835 61.343672 C -0.00000268835 95.221046 27.466294 122.687342 61.343668 122.687342 C 95.221042 122.687342 122.687338 95.221046 122.687338 61.343672 C 122.687338 27.466298 95.221042 0.00000133333 61.343668 0.00000133333 Z M 61.343668 0.00000133333 " stroke="#c98144" stroke-width="8" stroke-opacity="1" stroke-miterlimit="4"/></g></g><g clip-path="url(#dcd387c301)"><path fill="#51351e" d="M 75.03125 43.503906 L 50.929688 26.914062 C 50.136719 26.363281 49.105469 26.292969 48.261719 26.742188 C 47.421875 27.1875 46.886719 28.066406 46.886719 29.027344 L 46.886719 40.667969 L 26.894531 26.914062 C 26.101562 26.363281 25.070312 26.292969 24.226562 26.742188 C 23.386719 27.1875 22.851562 28.066406 22.851562 29.027344 L 22.851562 62.242188 C 22.851562 63.207031 23.386719 64.082031 24.226562 64.53125 C 24.605469 64.71875 25.019531 64.820312 25.429688 64.820312 C 25.949219 64.820312 26.464844 64.667969 26.894531 64.359375 L 46.886719 50.605469 L 46.886719 62.242188 C 46.886719 63.207031 47.421875 64.082031 48.261719 64.53125 C 48.640625 64.71875 49.054688 64.820312 49.464844 64.820312 C 49.964844 64.820312 50.480469 64.667969 50.929688 64.359375 L 75.03125 47.765625 C 75.738281 47.285156 76.148438 46.476562 76.148438 45.636719 C 76.148438 44.792969 75.738281 43.984375 75.03125 43.503906 Z M 75.03125 43.503906 " fill-opacity="1" fill-rule="nonzero"/></g></svg>